<svg xmlns="http://www.w3.org/2000/svg" shape-rendering="geometricPrecision" text-rendering="geometricPrecision"
     image-rendering="optimizeQuality" fill-rule="evenodd" clip-rule="evenodd" viewBox="0 0 512 465.548">

    <path class="cls-1"
          d="m212.43,172.77l35.4,0l0,8.54l-35.4,0l0,-8.54zm157,-27.07a20.34,20.34 0 0 1 16.39,8.33a20.51,20.51 0 1 1 0,24.49a20.49,20.49 0 1 1 -16.39,-32.82zm61.38,60.99a6.12,6.12 0 0 0 6,-5.85l0,-78.04l-239.66,0l0,78.04a5.5,5.5 0 0 0 1.71,4.16a5.98,5.98 0 0 0 4.16,1.77l227.79,-0.08zm-227.75,8.14a13.64,13.64 0 0 1 -9.91,-4.16a13.7,13.7 0 0 1 -4.16,-9.89l0,-134.74a13.99,13.99 0 0 1 14.08,-14.03l227.75,0a14.08,14.08 0 0 1 14.08,14.03l0,134.8a13.91,13.91 0 0 1 -4.16,9.89a14.18,14.18 0 0 1 -9.93,4.16q-113.98,0 -227.75,0l0.02,-0.06zm-5.91,-132.51l239.66,0l0,-16.3a5.73,5.73 0 0 0 -1.81,-4.16a5.85,5.85 0 0 0 -4.16,-1.81l-227.77,0a5.83,5.83 0 0 0 -4.16,1.81a5.75,5.75 0 0 0 -1.71,4.16l0,16.3l-0.04,0zm67.03,90.45l58.9,0l0,8.54l-58.9,0l0,-8.54z"
          id="svg_1"/>
    <path d="m11.69,234.31l74.56,0c5.33,0 9.69,4.37 9.69,9.69l0,170.22c0,5.32 -4.37,9.68 -9.69,9.68l-74.56,0c-5.32,0 -9.69,-4.36 -9.69,-9.68l0,-170.22c0,-5.33 4.36,-9.69 9.69,-9.69zm97.62,173.8l0,-158.68a2.4,2.4 0 0 1 2.4,-2.41l71.37,0l0.64,0.09c15.3,2.77 30.55,8.28 45.77,15.48c15.01,7.1 30.03,15.88 45.04,25.31l55.09,0.02c7.94,0.51 14.77,3.3 19.79,7.41c3.86,3.18 6.66,7.17 8.06,11.56c1.41,4.43 1.4,9.26 -0.35,14.04c-1.94,5.26 -6,10.47 -12.61,15c-10.1,7.38 -21.74,10.86 -34.23,12.18l-0.07,0.01c-12.26,1.29 -25.33,0.5 -38.55,-0.68c-5.31,-0.26 -8.79,1.99 -10.37,5.02a8.99,8.99 0 0 0 -1.01,3.96a9.25,9.25 0 0 0 0.83,4.06c1.48,3.19 5,5.71 10.68,5.74l0.17,0c3.63,0.27 7.51,-0.11 11.29,-0.48c2.89,-0.28 5.73,-0.56 8.47,-0.56c16.14,-0.02 30.84,-1.56 43.46,-6.26c12.39,-4.61 22.85,-12.32 30.79,-24.69l8.24,-19.22a2.35,2.35 0 0 1 1.14,-1.21l82.77,-41.02c13.47,-4.44 25.78,-3.09 35.39,1.81c6.26,3.19 11.38,7.92 14.94,13.54c3.56,5.63 5.55,12.19 5.55,19.04c0,9.74 -4.03,20.07 -13.26,29.19l-0.27,0.23c-29.87,21.73 -60.19,41.59 -90.92,59.64c-30.66,18 -61.67,34.19 -92.99,48.64c-23.1,14.02 -46.24,20.79 -69.39,20.68c-23.14,-0.12 -46.26,-7.14 -69.34,-20.67l-67.22,-34.65z"
          id="svg_2" transform="matrix(1, 0, 0, 1, 0, 0)"/>
</svg>