<?xml version="1.0" encoding="utf-8"?>
<!-- Generator: Adobe Illustrator 17.0.0, SVG Export Plug-In . SVG Version: 6.00 Build 0)  -->
<!DOCTYPE svg PUBLIC "-//W3C//DTD SVG 1.1//EN" "http://www.w3.org/Graphics/SVG/1.1/DTD/svg11.dtd">
<svg version="1.1" id="Layer_2" xmlns="http://www.w3.org/2000/svg" xmlns:xlink="http://www.w3.org/1999/xlink" x="0px" y="0px"
	 width="151px" height="44px" viewBox="0 0 151 44" enable-background="new 0 0 151 44" xml:space="preserve">
<g>
	<g>
		<path fill="#FF3F3F" d="M36.164,15.527c-0.242-0.763-1.828-1.298-2.148-2.086c-4.834-3.655-9.659-6.323-14.177-7.867
			c-2.105-0.719-5.404-1.618-6.725,1.567c-1.327,3.199,1.582,4.841,0.509,7.701c-1.031,1.577-2.062,3.155-3.093,4.733
			c-2.564,4.068-5.725,8.184-7.358,12.278c0.742,1.869,3.164,5.702,5.189,7.265c0.622-0.088,1.272-0.12,1.889-0.197
			c0.436-0.502,0.804-0.74,0.799-1.339c0.364-1.328-0.779-2.563-0.426-3.975c0.284-1.137,1.746-2.641,2.543-3.736
			c2.186-3.006,4.373-6.013,6.559-9.019c1.09-1.497,2.506-3.081,3.881-2.976c1.646,0.208,5.144,2.786,6.778,3.921
			c0.685-0.142,1.37-0.284,2.055-0.426C34.269,20.614,36.802,17.401,36.164,15.527z M22.495,19.083
			c-0.974,0.492-2.248,2.487-3.124,3.724c0.038,0.028,0.076,0.055,0.114,0.083c0.856-0.155,2.956,0.403,3.529-0.052
			c-0.268-1.716,1.671-2.454,2.605-3.342C24.529,18.825,23.376,18.45,22.495,19.083z"/>
	</g>
</g>
<g>
	<path fill="#FF3F3F" d="M40.569,8.691h10.627c5.875,0,8.152,3.729,8.152,7.559c0,3.828-2.277,7.558-8.152,7.558H45.75v8.449h-5.182
		V8.691z M45.75,19.781h4.027c2.409,0,4.555-0.528,4.555-3.531c0-3.004-2.146-3.532-4.555-3.532H45.75V19.781z"/>
	<path fill="#FF3F3F" d="M66.903,12.553h-4.687V8.691h4.687V12.553z M62.216,15.193h4.687v17.063h-4.687V15.193z"/>
	<path fill="#FF3F3F" d="M74.625,24.435c0,3.136,2.443,4.356,5.215,4.356c1.815,0,4.588-0.527,4.588-2.938
		c0-2.541-3.531-2.97-6.997-3.895c-3.499-0.924-7.031-2.277-7.031-6.699c0-4.819,4.555-7.129,8.813-7.129
		c4.918,0,9.439,2.146,9.439,7.591h-5.017c-0.165-2.839-2.179-3.565-4.654-3.565c-1.649,0-3.565,0.693-3.565,2.673
		c0,1.815,1.123,2.047,7.031,3.564c1.717,0.43,6.997,1.519,6.997,6.865c0,4.323-3.399,7.559-9.803,7.559
		c-5.215,0-10.099-2.575-10.034-8.384H74.625z"/>
	<path fill="#FF3F3F" d="M92.016,8.691h4.687v8.878h0.1c1.188-1.914,3.234-2.838,4.983-2.838c4.983,0,6.238,2.806,6.238,7.03v10.495
		h-4.688v-9.638c0-2.805-0.825-4.191-3.003-4.191c-2.542,0-3.631,1.419-3.631,4.885v8.944h-4.687V8.691z"/>
	<path fill="#FF3F3F" d="M119.868,14.731c5.38,0,8.846,3.564,8.846,9.01c0,5.413-3.466,8.978-8.846,8.978
		c-5.347,0-8.813-3.564-8.813-8.978C111.056,18.296,114.521,14.731,119.868,14.731z M119.868,29.188
		c3.201,0,4.158-2.739,4.158-5.446c0-2.739-0.957-5.479-4.158-5.479c-3.168,0-4.126,2.739-4.126,5.479
		C115.742,26.448,116.7,29.188,119.868,29.188z"/>
	<path fill="#FF3F3F" d="M131.747,15.193h4.456v2.179h0.065c1.122-1.815,2.971-2.641,5.083-2.641c5.347,0,7.756,4.323,7.756,9.175
		c0,4.555-2.508,8.813-7.492,8.813c-2.046,0-3.993-0.891-5.115-2.574h-0.066v8.119h-4.687V15.193z M144.421,23.774
		c0-2.706-1.089-5.512-4.093-5.512c-3.069,0-4.06,2.739-4.06,5.512s1.057,5.413,4.093,5.413
		C143.431,29.188,144.421,26.547,144.421,23.774z"/>
</g>
</svg>
